<?xml version="1.0" standalone="no"?>
<!DOCTYPE svg PUBLIC "-//W3C//DTD SVG 20010904//EN"
 "http://www.w3.org/TR/2001/REC-SVG-20010904/DTD/svg10.dtd">
<svg version="1.0" xmlns="http://www.w3.org/2000/svg"
 width="2142.000000pt" height="2120.000000pt" viewBox="0 0 2142.000000 2120.000000"
 preserveAspectRatio="xMidYMid meet">

<g transform="translate(0.000000,2120.000000) scale(0.100000,-0.100000)"
fill="#000000" stroke="none">
<path d="M0 10600 l0 -10600 10710 0 10710 0 0 10600 0 10600 -10710 0 -10710
0 0 -10600z m12770 5248 c-22 -92 -70 -220 -122 -320 -175 -342 -494 -579
-867 -641 -45 -8 -77 -19 -79 -27 -4 -11 25 -12 169 -7 237 9 294 19 634 116
l70 20 -45 -40 c-162 -144 -344 -276 -471 -340 -153 -76 -220 -92 -789 -184
-294 -47 -575 -95 -624 -107 -105 -24 -105 -25 41 -98 421 -209 683 -630 683
-1095 0 -263 -66 -471 -228 -716 -80 -122 -146 -204 -372 -469 -290 -339 -433
-537 -543 -752 -248 -484 -303 -1031 -196 -1973 57 -509 150 -1029 359 -2010
176 -826 212 -1054 240 -1540 13 -218 13 -346 0 -324 -5 9 -28 70 -51 135
-138 395 -349 793 -714 1349 -186 283 -410 561 -697 864 -196 207 -467 464
-515 486 -56 27 -121 23 -268 -18 -166 -46 -366 -91 -553 -123 -248 -43 -424
-25 -634 66 -150 64 -302 159 -285 176 2 2 79 8 171 14 328 21 521 71 935 242
80 33 185 70 234 83 49 13 92 27 95 30 3 3 -12 30 -32 60 -29 41 -52 61 -93
81 -71 35 -92 33 -568 -55 -719 -133 -736 -136 -950 -136 -173 0 -200 3 -296
27 -218 55 -430 159 -666 326 -60 42 -93 72 -93 84 0 22 2 22 214 7 190 -13
427 0 686 37 247 35 396 66 712 145 294 73 401 94 541 104 48 4 87 10 85 14
-10 26 -155 138 -217 169 l-75 37 -150 0 c-83 0 -326 -4 -541 -9 -533 -12
-918 9 -1275 70 -842 143 -1422 501 -2008 1238 -39 50 -70 91 -68 93 2 2 93
-45 202 -104 457 -246 721 -332 1219 -397 460 -60 766 -60 1320 0 369 41 402
41 468 11 31 -14 78 -40 104 -58 l48 -33 -19 29 c-39 60 -243 331 -262 346
-28 24 -40 26 -493 64 -1181 100 -1660 192 -2153 415 -657 297 -1170 795
-1502 1459 -75 149 -142 304 -263 610 -118 299 -133 349 -133 441 l0 65 38
-65 c179 -303 237 -396 317 -502 191 -253 378 -439 639 -634 589 -443 1349
-738 2256 -878 202 -31 1011 -138 1015 -134 5 5 -67 121 -109 175 -44 58 -110
111 -176 142 -25 12 -202 59 -395 105 -871 209 -1220 318 -1625 505 -871 403
-1424 978 -1743 1811 -97 252 -176 553 -212 810 -31 214 -29 670 3 702 4 4 29
-72 55 -170 63 -232 101 -332 202 -537 178 -364 441 -714 814 -1085 604 -600
1288 -1019 2131 -1305 520 -177 1004 -298 1800 -450 419 -80 650 -132 856
-191 858 -246 1410 -780 1724 -1669 23 -66 48 -128 55 -138 12 -17 14 -16 23
15 6 18 13 78 17 133 41 659 196 1256 523 2025 54 129 118 291 141 359 169
501 153 906 -48 1214 -213 326 -631 423 -942 219 -86 -57 -123 -96 -205 -215
l-59 -87 -6 52 c-14 111 20 278 75 373 64 108 188 208 334 270 171 72 273 133
379 226 194 171 425 262 753 298 52 6 232 20 400 31 738 49 956 96 1210 261
146 94 244 190 375 366 38 51 70 91 73 88 2 -2 -1 -28 -8 -57z m6555 -88 c8
-37 -11 -397 -31 -585 -68 -645 -254 -1143 -596 -1597 -427 -567 -1031 -969
-1882 -1253 -266 -89 -529 -159 -1216 -326 -1159 -282 -2052 -514 -2241 -582
-770 -279 -1321 -876 -1597 -1729 -59 -182 -104 -374 -207 -878 -42 -206 -92
-440 -110 -520 -51 -223 -172 -632 -193 -652 -17 -18 -18 -11 -15 214 2 128 5
494 7 813 5 664 22 951 72 1250 91 536 350 993 823 1448 379 364 834 610 1411
761 74 20 297 67 495 107 864 170 1696 366 2037 480 564 187 1069 453 1573
831 605 453 1030 922 1341 1480 93 169 151 310 240 586 32 100 64 182 71 182
6 0 14 -13 18 -30z m25 -1963 c0 -2 -35 -111 -79 -243 -316 -960 -822 -1688
-1469 -2116 -521 -343 -1084 -513 -2022 -607 -303 -31 -1110 -65 -1110 -47 0
4 35 53 79 109 43 56 153 216 245 354 92 140 181 263 199 277 41 31 84 42 237
61 947 120 1604 289 2136 551 659 325 1170 763 1523 1306 53 81 124 195 159
253 46 75 69 105 83 105 10 0 19 -1 19 -3z m-1510 -2878 c0 -16 -70 -116 -151
-215 -118 -145 -217 -250 -339 -361 -438 -399 -924 -636 -1511 -737 -399 -69
-678 -82 -1554 -70 l-679 9 179 144 c279 224 374 308 605 539 118 118 225 218
238 223 38 15 128 10 482 -22 802 -73 1306 -41 1857 116 298 86 537 187 743
313 119 74 130 79 130 61z m-3870 -1654 c553 -133 840 -190 1075 -217 148 -16
495 -16 623 1 172 22 162 -2 -63 -154 -204 -137 -437 -238 -652 -282 -121 -25
-442 -25 -597 0 -191 30 -1076 213 -1178 243 -16 5 -16 8 -4 32 11 21 370 422
379 422 1 0 20 7 42 15 49 18 48 18 375 -60z m-753 -639 c22 -8 111 -45 199
-84 400 -175 701 -252 988 -252 72 0 108 -4 122 -14 23 -17 28 -13 -74 -70
-186 -105 -367 -167 -527 -181 -157 -13 -417 21 -682 90 -127 33 -533 162
-533 169 0 8 150 147 250 233 149 128 174 138 257 109z m-648 -623 c8 -15 -16
-44 -143 -173 -631 -642 -1192 -1484 -1600 -2400 -31 -69 -56 -118 -56 -108
-1 84 131 499 267 843 84 212 221 502 308 652 306 521 754 993 1107 1163 92
45 103 47 117 23z"/>
<path d="M10400 14767 c-36 -13 -92 -41 -125 -62 l-60 -38 30 -13 c113 -47
249 -10 321 87 13 18 24 37 24 41 0 17 -126 7 -190 -15z"/>
</g>
</svg>
